<svg width="40" height="49" viewBox="0 0 40 49" fill="none" xmlns="http://www.w3.org/2000/svg">
<g clip-path="url(#clip0_2249_33507)">
<path fill-rule="evenodd" clip-rule="evenodd" d="M34.423 8.57659L24.7816 5.92695C24.1161 5.74403 23.5765 6.16868 23.5765 6.87542V17.1129C23.5765 17.8196 24.1161 18.5408 24.7816 18.7238L34.423 21.3733C35.0886 21.5563 35.6283 21.1316 35.6283 20.4249V10.1875C35.6283 9.48073 35.0886 8.75951 34.423 8.57659ZM24.7816 2.08791C22.1193 1.35624 19.9609 3.05483 19.9609 5.88181V16.1192C19.9609 18.9462 22.1193 21.8311 24.7816 22.5627L34.423 25.2124C37.0854 25.9441 39.2437 24.2455 39.2437 21.4185V11.1811C39.2437 8.35409 37.0854 5.46923 34.423 4.73756L24.7816 2.08791Z" fill="#8098F9"/>
<path fill-rule="evenodd" clip-rule="evenodd" d="M26.8529 16.9186L14.8012 13.6066C14.1356 13.4237 13.5959 13.8484 13.5959 14.5551V27.3519C13.5959 28.0586 14.1356 28.7798 14.8012 28.9627L26.8529 32.2748C27.5185 32.4578 28.058 32.0331 28.058 31.3264V18.5296C28.058 17.8228 27.5185 17.1016 26.8529 16.9186ZM14.8012 9.7676C12.1388 9.03593 9.98047 10.7345 9.98047 13.5615V26.3583C9.98047 29.1853 12.1388 32.0702 14.8012 32.8018L26.8529 36.1139C29.5153 36.8455 31.6735 35.1469 31.6735 32.32V19.5232C31.6735 16.6962 29.5153 13.8113 26.8529 13.0797L14.8012 9.7676Z" fill="#6172F3"/>
<path fill-rule="evenodd" clip-rule="evenodd" d="M19.2828 25.2569L4.82069 21.2824C4.15509 21.0995 3.61551 21.5241 3.61551 22.2309V37.5871C3.61551 38.2938 4.15509 39.015 4.82069 39.1979L19.2828 43.1723C19.9484 43.3553 20.4879 42.9306 20.4879 42.2239V26.8678C20.4879 26.1611 19.9484 25.4399 19.2828 25.2569ZM4.82069 17.4434C2.1583 16.7117 0 18.4103 0 21.2373V36.5934C0 39.4204 2.1583 42.3052 4.82069 43.037L19.2828 47.0114C21.9452 47.7431 24.1034 46.0445 24.1034 43.2176V27.8614C24.1034 25.0344 21.9452 22.1495 19.2828 21.4179L4.82069 17.4434Z" fill="#444CE7"/>
</g>
<defs>
<clipPath id="clip0_2249_33507">
<rect width="39.8125" height="49" fill="white"/>
</clipPath>
</defs>
</svg>
